<?xml version="1.0" encoding="utf-8"?>
<!-- Generator: Adobe Illustrator 25.4.1, SVG Export Plug-In . SVG Version: 6.00 Build 0)  -->
<svg version="1.1" id="Слой_1" xmlns="http://www.w3.org/2000/svg" xmlns:xlink="http://www.w3.org/1999/xlink" x="0px" y="0px"
	 viewBox="0 0 100 100" style="enable-background:new 0 0 100 100;" xml:space="preserve">
<style type="text/css">
	.st0{opacity:8.000000e-02;fill:#23232A;enable-background:new    ;}
	.st1{display:none;}
	.st2{fill:#0C0C0D;}
</style>
<circle class="st0" cx="50" cy="50" r="50"/>
<path class="st1" d="M49.8,31.1c2.6,1.5,2.9,3.2,0.9,5.5c-2.7,3-5.5,6.1-8.4,9.3c0.6,0,1,0,1.4,0c7.3,0,14.6,0.1,21.8-0.1
	c3.4-0.1,5.2,3,4.1,6.2c-0.5,1.5-1.9,2.3-3.8,2.3c-7.4,0-14.8,0-22.2,0c-0.4,0-0.7,0-1.3,0c1.2,1.3,2.2,2.5,3.2,3.7
	c1.6,1.8,3.3,3.7,4.9,5.5c0.5,0.6,1,1.3,1.3,2.1c0.5,1,0.1,2-0.6,2.8c-0.8,0.8-1.8,1-2.8,0.6c-0.7-0.2-1.3-0.7-1.8-1.2
	c-4.9-4.9-9.8-9.7-14.6-14.6c-0.7-0.7-1.2-1.7-1.8-2.6c0-0.3,0-0.6,0-0.9c0.6-0.9,1.1-1.8,1.8-2.5c3.8-3.9,7.6-7.9,11.6-11.7
	c1.6-1.6,2.9-3.7,5.3-4.4C49,31.1,49.4,31.1,49.8,31.1z"/>
<g>
	<path class="st2" d="M62,50c0,0.3-0.1,0.5-0.3,0.7C61.5,50.9,61.3,51,61,51H49v8c0,0.2-0.1,0.4-0.2,0.6c-0.1,0.2-0.3,0.3-0.4,0.4
		C48.2,60,48,60,47.8,60c-0.2,0-0.4-0.1-0.5-0.3l-9-9c-0.1-0.1-0.2-0.2-0.2-0.3C38,50.3,38,50.1,38,50c0-0.1,0-0.3,0.1-0.4
		c0.1-0.1,0.1-0.2,0.2-0.3l9-9c0.1-0.1,0.3-0.2,0.5-0.3c0.2,0,0.4,0,0.6,0.1c0.2,0.1,0.3,0.2,0.4,0.4c0.1,0.2,0.2,0.4,0.2,0.6v8h12
		c0.3,0,0.5,0.1,0.7,0.3C61.9,49.5,62,49.7,62,50z"/>
</g>
</svg>
