<svg width="32" height="32" viewBox="0 0 32 32" fill="none" xmlns="http://www.w3.org/2000/svg">
<path d="M17.4141 16L25.707 7.70712C25.8944 7.51954 25.9996 7.26526 25.9995 7.00015C25.9994 6.73505 25.894 6.48083 25.7066 6.29338C25.5191 6.10592 25.2649 6.00057 24.9998 6.00049C24.7347 6.00041 24.4804 6.10559 24.2928 6.29293L15.9999 14.5858L7.70703 6.29293C7.51945 6.10559 7.26517 6.00041 7.00006 6.00049C6.73496 6.00057 6.48074 6.10592 6.29329 6.29338C6.10583 6.48083 6.00048 6.73505 6.0004 7.00015C6.00032 7.26526 6.1055 7.51954 6.29284 7.70712L14.5858 16L6.29284 24.2929C6.19989 24.3858 6.12614 24.496 6.07581 24.6174C6.02548 24.7387 5.99955 24.8688 5.99951 25.0002C5.99947 25.1315 6.02532 25.2616 6.07557 25.383C6.12583 25.5044 6.1995 25.6147 6.2924 25.7076C6.38529 25.8005 6.49558 25.8741 6.61696 25.9244C6.73834 25.9746 6.86843 26.0005 6.99981 26.0004C7.13118 26.0004 7.26125 25.9745 7.3826 25.9241C7.50395 25.8738 7.61419 25.8001 7.70703 25.7071L15.9999 17.4142L24.2928 25.7071C24.4804 25.8945 24.7347 25.9996 24.9998 25.9996C25.2649 25.9995 25.5191 25.8941 25.7066 25.7067C25.894 25.5192 25.9994 25.265 25.9995 24.9999C25.9996 24.7348 25.8944 24.4805 25.707 24.2929L17.4141 16Z" fill="#0C0C0D"/>
</svg>
