<?xml version="1.0" encoding="utf-8"?>
<!-- Generator: Adobe Illustrator 25.4.1, SVG Export Plug-In . SVG Version: 6.00 Build 0)  -->
<svg version="1.1" id="Слой_1" xmlns="http://www.w3.org/2000/svg" xmlns:xlink="http://www.w3.org/1999/xlink" x="0px" y="0px"
	 viewBox="0 0 50 50" style="enable-background:new 0 0 50 50;" xml:space="preserve">
<style type="text/css">
	.st0{fill:#3333FF;}
	.st1{fill:#FFFFFF;}
	.st2{font-family:'Baloo-Regular';}
	.st3{font-size:23.8997px;}
</style>
<g id="_x30_FhbYm.tif">
	<g>
		<path class="st0" d="M23.9,0c0.7,0,1.5,0,2.2,0c0.1,0,0.2,0,0.3,0c1.3,0.1,2.6,0.2,3.9,0.5c6.2,1.4,11.2,4.7,15,9.9
			c2.6,3.5,4,7.5,4.5,11.8c0.1,0.5,0.1,1,0.1,1.5c0,0.7,0,1.5,0,2.2c0,0.1,0,0.2,0,0.3c-0.1,1.8-0.4,3.6-0.9,5.4
			c-2,6.9-6.3,12-12.6,15.4c-2.7,1.5-5.7,2.3-8.8,2.6c-0.5,0.1-1,0.1-1.5,0.1c-0.7,0-1.5,0-2.2,0c-0.1,0-0.2,0-0.3,0
			c-2.5-0.1-4.9-0.6-7.2-1.5c-5.6-2.1-9.9-5.7-12.9-10.9c-1.8-3.1-2.9-6.4-3.3-9.9c-0.1-0.5-0.1-1-0.1-1.5c0-0.7,0-1.5,0-2.2
			c0-0.3,0.1-0.7,0.1-1c0.2-2.4,0.7-4.8,1.7-7.1C4,10.2,7.8,6,13,3.1c2.9-1.6,6-2.6,9.3-2.9C22.8,0.1,23.4,0,23.9,0z M19.7,17.7
			c-0.1,0-0.2,0-0.3,0c-2,0-4,0-6,0c-1.4,0-2.5,1-2.5,2.4c0,4.2,0,8.5,0,12.7c0,0.3,0,0.6,0.1,0.8c0.3,1,1.2,1.6,2.3,1.6
			c0.4,0,0.7,0,1.1,0c0,0.2,0,0.4,0,0.6c0.8,0,1.6,0,2.4,0c0-0.2,0-0.4,0-0.5c5.5,0,10.9,0,16.4,0c0,0.2,0,0.4,0,0.5
			c0.8,0,1.6,0,2.3,0c0-0.2,0-0.4,0-0.6c0.4,0,0.7,0,1,0c1.5,0,2.5-1,2.5-2.5c0-4.2,0-8.4,0-12.6c0-1.5-1-2.5-2.5-2.5c-2,0-4,0-6,0
			c-0.1,0-0.2,0-0.3,0c0-0.5,0-1,0-1.5c0-1.2-0.8-2-2-2c-2.2,0-4.3,0-6.5,0c-1.2,0-2,0.8-2,2C19.7,16.7,19.7,17.1,19.7,17.7z"/>
		<path class="st0" d="M20.7,17.6c0-0.7,0-1.4,0-2.1c2.9,0,5.7,0,8.6,0c0,0.7,0,1.4,0,2.1C26.4,17.6,23.6,17.6,20.7,17.6z"/>
	</g>
</g>
<text transform="matrix(1 0 0 1 11.5807 33.6036)" class="st1 st2 st3">24</text>
</svg>
