<?xml version="1.0" encoding="utf-8"?>
<!-- Generator: Adobe Illustrator 25.4.1, SVG Export Plug-In . SVG Version: 6.00 Build 0)  -->
<svg version="1.1" id="Слой_1" xmlns="http://www.w3.org/2000/svg" xmlns:xlink="http://www.w3.org/1999/xlink" x="0px" y="0px"
	 viewBox="0 0 128 38" style="enable-background:new 0 0 128 38;" xml:space="preserve">
<style type="text/css">
	.st0{fill:#0C0C0D;}
</style>
<path class="st0" d="M0,29.4h7.9v-3.6h0.2c0.9,2.2,3.1,3.9,6.2,3.9c4.8,0,8.8-3.6,8.8-11.2c0-7.9-4.3-11.2-8.7-11.2
	c-3.3,0-5.4,1.9-6.3,4.1H8v-11H0V29.4z M7.8,18.5c0-3.2,1.3-5.2,3.5-5.2s3.5,1.9,3.5,5.2s-1.3,5.2-3.5,5.2S7.8,21.7,7.8,18.5z"/>
<path class="st0" d="M32.6,29.7c2.9,0,5.1-1,6.4-3.4h0.2v3.1h7.5V14.5c0-4-3.9-7.1-10.3-7.1c-6.7,0-9.9,3.4-10.2,7.4h7.4
	c0.2-1.3,1.2-2,2.7-2c1.4,0,2.4,0.6,2.4,1.8v0.1c0,1.3-1.4,1.7-5.2,1.9c-4.6,0.3-8.2,2.1-8.2,6.9C25.4,27.7,28.4,29.7,32.6,29.7z
	 M35.2,24.8c-1.4,0-2.3-0.7-2.3-1.9c0-1.1,0.8-2,2.7-2.3c1.3-0.2,2.3-0.5,3.2-0.8v1.8C38.8,23.7,37,24.8,35.2,24.8z"/>
<path class="st0" d="M61.3,38c7,0,11.7-3.1,11.7-8.7V7.6h-8v3.8h-0.2c-0.9-2.2-3-4.1-6.3-4.1c-4.4,0-8.7,3.3-8.7,11.2
	c0,7.5,4,10.6,8.8,10.6c3,0,5.4-1.2,6.3-3.5h0.2v3.7c0,2.6-1.5,3.4-3.6,3.4c-1.8,0-3.2-0.5-3.4-1.9h-7.7C50.7,35,54.6,38,61.3,38z
	 M61.5,23.6c-2.2,0-3.5-1.8-3.5-5s1.3-5.2,3.5-5.2c2.2,0,3.5,1.9,3.5,5.2C65.1,21.7,63.8,23.6,61.5,23.6z"/>
<path class="st0" d="M77,29.4h22.8v-6.3H88.2v-0.2l2.8-2.3c6.8-5.5,8.5-8.4,8.5-11.7c0-5.4-4.5-8.9-11.7-8.9
	c-6.9,0-11.4,3.8-11.4,9.9h7.7c0-2.4,1.5-3.8,3.7-3.8c2.2,0,3.8,1.3,3.8,3.6c0,2.1-1.3,3.4-3.5,5.2L77,23.7V29.4z"/>
<path class="st0" d="M102.4,24.9h14.4v4.5h7.7v-4.5h3.4v-6.1h-3.4V0.4h-10.2l-11.9,18.3V24.9z M117,18.7h-6.7v-0.2l6.4-10h0.2V18.7z
	"/>
</svg>
